<svg id="Grupo_329" data-name="Grupo 329" xmlns="http://www.w3.org/2000/svg" width="880.16" height="576.272" viewBox="0 0 880.16 576.272">
  <circle id="Elipse_48" data-name="Elipse 48" cx="26.701" cy="26.701" r="26.701" transform="translate(408.854 44.565)" fill="#fd6584"/>
  <path id="Trazado_721" data-name="Trazado 721" d="M655.233,220.487a13.235,13.235,0,0,0-11.17-9.29,1.078,1.078,0,0,0-.18,0,1.418,1.418,0,0,0-.22-.05c-8.94-1.16-18.88,1.66-25.57,7.8a23.958,23.958,0,0,0-5.83,8.04,12.917,12.917,0,0,0-10.83-5.28,13.184,13.184,0,0,0-11.8,9.51,1.526,1.526,0,0,0,.69,1.69,6.674,6.674,0,0,0,2.79,1.42c2.21.47,4.44.9,6.67,1.29q6.54,1.14,13.15,1.85,4.365.465,8.75.74c6.04.38,12.11.47,18.16.28,3-.1,5.88-.2,8.62-1.52a12.8,12.8,0,0,0,4.95-4.31,14.548,14.548,0,0,0,1.82-12.17Z" transform="translate(-159.92 -161.864)" fill="#e6e6e6"/>
  <path id="Trazado_722" data-name="Trazado 722" d="M600.3,259.387a13.65,13.65,0,0,0-.56-3.3,13.26,13.26,0,0,0-11.18-9.29.966.966,0,0,0-.17,0,1.884,1.884,0,0,0-.23-.05,33.193,33.193,0,0,0-14.69,1.51c-7.26,2.43-13.63,7.33-16.7,14.33a12.922,12.922,0,0,0-10.84-5.28,13.184,13.184,0,0,0-11.8,9.51,1.555,1.555,0,0,0,.69,1.69,6.733,6.733,0,0,0,2.79,1.42c2.22.47,4.44.9,6.68,1.29q6.54,1.14,13.14,1.85a195.168,195.168,0,0,0,26.92,1.02c2.99-.1,5.88-.2,8.62-1.52a12.77,12.77,0,0,0,4.94-4.31,14.265,14.265,0,0,0,2.39-8.87Z" transform="translate(-159.92 -161.864)" fill="#e6e6e6"/>
  <path id="Trazado_723" data-name="Trazado 723" d="M948.052,583.375a171.856,171.856,0,0,1-7.443,53.773c-.186.633-.41,1.265-.633,1.9H830.422a98.314,98.314,0,0,1,7.406-22.328c9.117-19.351,24-35.911,38.7-52.359,20.244-22.663,40-45.139,43.13-74.612a169.259,169.259,0,0,1,19.053,39.334,46.232,46.232,0,0,0-15.294,9.377c-1.228,1.154-2.531,2.828-1.9,4.428.6,1.34,2.233,1.786,3.684,2.084,3.5.67,7,1.34,10.494,1.972,2.754.558,5.545,1.079,8.336,1.6a182.724,182.724,0,0,1,4.019,34.831Z" transform="translate(-159.92 -161.864)" fill="#f2f2f2"/>
  <path id="Trazado_724" data-name="Trazado 724" d="M1040.08,571.318c-17.565,10.68-28.729,27.2-37.846,45.7a46.742,46.742,0,0,0-21.249,11.164c-1.265,1.154-2.568,2.828-1.9,4.428.558,1.34,2.233,1.786,3.684,2.084,3.461.67,7,1.34,10.457,1.972-.335.782-.67,1.6-1,2.382H876.12A164.169,164.169,0,0,1,893.573,619.1c1.377-1.377,2.791-2.679,4.242-4.019a173.65,173.65,0,0,1,50.237-31.706A176.734,176.734,0,0,1,1040.08,571.318Z" transform="translate(-159.92 -161.864)" fill="#f2f2f2"/>
  <path id="Trazado_725" data-name="Trazado 725" d="M895.47,639.046H792.093a167.922,167.922,0,0,1,.149-24.858c4.131-51.094,31.929-99.768,73.868-129.241-5.359,19.09-2.6,38.069,2.977,57.122-.781.26-1.563.484-2.27.781a46.236,46.236,0,0,0-15.294,9.378c-1.228,1.154-2.53,2.828-1.9,4.428.558,1.34,2.233,1.786,3.684,2.084,3.5.67,7,1.34,10.457,1.972,2.791.558,5.582,1.079,8.373,1.637,1.3.223,2.6.484,3.907.744.186.447.3.856.484,1.265,6.549,18.048,13.694,36.245,17.044,54.74a127.806,127.806,0,0,1,1.712,14.029C895.4,635.1,895.47,637.074,895.47,639.046Z" transform="translate(-159.92 -161.864)" fill="#f2f2f2"/>
  <path id="Trazado_726" data-name="Trazado 726" d="M332.052,583.375a171.856,171.856,0,0,1-7.443,53.773c-.186.633-.41,1.265-.633,1.9H214.422a98.322,98.322,0,0,1,7.406-22.328c9.117-19.351,24-35.911,38.7-52.359,20.244-22.663,40-45.139,43.13-74.612a169.26,169.26,0,0,1,19.053,39.334,46.231,46.231,0,0,0-15.295,9.377c-1.228,1.154-2.531,2.828-1.9,4.428.6,1.34,2.233,1.786,3.684,2.084,3.5.67,7,1.34,10.494,1.972,2.754.558,5.545,1.079,8.336,1.6A182.725,182.725,0,0,1,332.052,583.375Z" transform="translate(-159.92 -161.864)" fill="#f2f2f2"/>
  <path id="Trazado_727" data-name="Trazado 727" d="M424.08,571.318c-17.565,10.68-28.729,27.2-37.846,45.7a46.743,46.743,0,0,0-21.249,11.164c-1.265,1.154-2.568,2.828-1.9,4.428.558,1.34,2.233,1.786,3.684,2.084,3.461.67,7,1.34,10.457,1.972-.335.782-.67,1.6-1,2.382H260.12A164.175,164.175,0,0,1,277.573,619.1c1.377-1.377,2.791-2.679,4.242-4.019a173.651,173.651,0,0,1,50.238-31.706,176.734,176.734,0,0,1,92.028-12.057Z" transform="translate(-159.92 -161.864)" fill="#f2f2f2"/>
  <path id="Trazado_728" data-name="Trazado 728" d="M279.47,639.046H176.093a167.935,167.935,0,0,1,.149-24.858c4.131-51.094,31.929-99.768,73.868-129.241-5.359,19.09-2.6,38.069,2.977,57.122-.781.26-1.563.484-2.27.781a46.236,46.236,0,0,0-15.294,9.378c-1.228,1.154-2.53,2.828-1.9,4.428.558,1.34,2.233,1.786,3.684,2.084,3.5.67,7,1.34,10.457,1.972,2.791.558,5.582,1.079,8.373,1.637,1.3.223,2.605.484,3.907.744.186.447.3.856.484,1.265,6.55,18.048,13.694,36.245,17.044,54.74a127.776,127.776,0,0,1,1.712,14.029C279.4,635.1,279.47,637.074,279.47,639.046Z" transform="translate(-159.92 -161.864)" fill="#f2f2f2"/>
  <path id="Trazado_729" data-name="Trazado 729" d="M664.33,595.644l92.37,8.2.99.09V209.794l-.99-.69a288.324,288.324,0,0,0-62.01-32.94l-4.72,65.1-.43,5.96-4.67,64.56-1.44,19.86-18.93,261.7Z" transform="translate(-159.92 -161.864)" fill="#e6e6e6"/>
  <path id="Trazado_730" data-name="Trazado 730" d="M435.9,202.454c-.66.42-1.32.84-1.98,1.28v400.2l1.98-.18,91.37-8.11-.17-2.3-18.93-261.7-1.44-19.86-4.67-64.56-.43-5.96-4.95-68.27a287.689,287.689,0,0,0-60.78,29.46Z" transform="translate(-159.92 -161.864)" fill="#e6e6e6"/>
  <path id="Trazado_731" data-name="Trazado 731" d="M433.92,203.734c-1.33.86-2.66,1.74-3.97,2.63v403.03c0,10.07,5.97,18.51,13.95,20.66a15.251,15.251,0,0,0,4,.53H744.7a15.117,15.117,0,0,0,3.99-.53,17.06,17.06,0,0,0,7.78-4.66,22.919,22.919,0,0,0,6.18-16V213.374c-1.64-1.21-3.29-2.41-4.96-3.58l-.99-.69v400.29a16.113,16.113,0,0,1-.46,3.85c-1.41,5.95-6.06,10.31-11.54,10.31H447.9c-6.62,0-12-6.35-12-14.16V202.454C435.24,202.874,434.58,203.294,433.92,203.734Z" transform="translate(-159.92 -161.864)" fill="#e6e6e6"/>
  <rect id="Rectángulo_102" data-name="Rectángulo 102" width="326.752" height="5.959" transform="translate(273.003 79.404)" fill="#e6e6e6"/>
  <path id="Trazado_732" data-name="Trazado 732" d="M659.6,165.254c-1.98-.49-3.96-.95-5.96-1.38v161.81h5.96Z" transform="translate(-159.92 -161.864)" fill="#e6e6e6"/>
  <path id="Trazado_733" data-name="Trazado 733" d="M538.96,161.864c-1.99.37-3.98.75-5.96,1.16v162.66h5.96Z" transform="translate(-159.92 -161.864)" fill="#e6e6e6"/>
  <path id="Trazado_734" data-name="Trazado 734" d="M368.86,620.154a26.712,26.712,0,0,0,1.93,9.98,25.539,25.539,0,0,0,1.75,3.56,27.1,27.1,0,0,0,3.02,4.18,26.76,26.76,0,0,0,20.12,9.11H786.99a26.82,26.82,0,0,0,0-53.64H395.68A26.846,26.846,0,0,0,368.86,620.154Z" transform="translate(-159.92 -161.864)" fill="#e6e6e6"/>
  <rect id="Rectángulo_103" data-name="Rectángulo 103" width="324.766" height="19.863" transform="translate(597.768 169.782) rotate(180)" fill="#e6e6e6"/>
  <path id="Trazado_735" data-name="Trazado 735" d="M581.4,305.824H609.21a10.925,10.925,0,0,1-10.925,10.925h-5.959A10.925,10.925,0,0,1,581.4,305.824h0Z" transform="translate(1030.691 460.709) rotate(180)" fill="#e6e6e6"/>
  <path id="Trazado_736" data-name="Trazado 736" d="M159.92,635.474a289,289,0,0,0,28.12,28.95H994.62a288.994,288.994,0,0,0,28.12-28.95Z" transform="translate(-159.92 -161.864)" fill="#3f3d56"/>
  <path id="Trazado_737" data-name="Trazado 737" d="M556.61,538.664v102.56h71.85V538.664a3.448,3.448,0,0,0-2.43-3.3,3.174,3.174,0,0,0-1.03-.16H560.08A3.463,3.463,0,0,0,556.61,538.664Zm28.04,35.24a7.67,7.67,0,1,1,15.34,0v11.9a7.67,7.67,0,1,1-15.34,0Z" transform="translate(-159.92 -161.864)" fill="#2f2e41"/>
  <path id="Trazado_738" data-name="Trazado 738" d="M556.39,637.944v9.89a1.946,1.946,0,0,0,1.93,1.94h68.43a1.94,1.94,0,0,0,1.93-1.94v-9.89Z" transform="translate(-159.92 -161.864)" fill="#3f3d56"/>
  <path id="Trazado_739" data-name="Trazado 739" d="M443.58,384.144V571.4a9.007,9.007,0,0,0,9,9h277.5a9.007,9.007,0,0,0,9-9V384.144a9.012,9.012,0,0,0-9-8.99H452.58a9.011,9.011,0,0,0-9,8.99Z" transform="translate(-159.92 -161.864)" fill="#3f3d56"/>
  <path id="Trazado_740" data-name="Trazado 740" d="M450.09,386.474v182.62a4.818,4.818,0,0,0,4.81,4.81H727.77a4.818,4.818,0,0,0,4.81-4.81V386.474a4.82,4.82,0,0,0-4.81-4.82H454.9a4.821,4.821,0,0,0-4.81,4.82Z" transform="translate(-159.92 -161.864)" fill="#28567a"/>
  <path id="Trazado_741" data-name="Trazado 741" d="M505.73,652.1a2.948,2.948,0,0,0,2.32,1.11H670.39a2.987,2.987,0,0,0,2.92-3.6l-2.52-11.97a2.993,2.993,0,0,0-1.86-2.17,2.9,2.9,0,0,0-1.06-.2H510.56a2.894,2.894,0,0,0-1.06.2,2.992,2.992,0,0,0-1.86,2.17l-2.52,11.97a2.985,2.985,0,0,0,.61,2.49Z" transform="translate(-159.92 -161.864)" fill="#2f2e41"/>
  <rect id="Rectángulo_104" data-name="Rectángulo 104" width="5" height="3" rx="0.488" transform="translate(506.797 478.566) rotate(180)" fill="#3f3d56"/>
  <rect id="Rectángulo_105" data-name="Rectángulo 105" width="5" height="3" rx="0.488" transform="translate(496.797 478.566) rotate(180)" fill="#3f3d56"/>
  <rect id="Rectángulo_106" data-name="Rectángulo 106" width="5" height="3" rx="0.488" transform="translate(486.797 478.566) rotate(180)" fill="#3f3d56"/>
  <rect id="Rectángulo_107" data-name="Rectángulo 107" width="5" height="3" rx="0.488" transform="translate(476.797 478.566) rotate(180)" fill="#3f3d56"/>
  <rect id="Rectángulo_108" data-name="Rectángulo 108" width="5" height="3" rx="0.488" transform="translate(466.797 478.566) rotate(180)" fill="#3f3d56"/>
  <rect id="Rectángulo_109" data-name="Rectángulo 109" width="5" height="3" rx="0.488" transform="translate(456.797 478.566) rotate(180)" fill="#3f3d56"/>
  <rect id="Rectángulo_110" data-name="Rectángulo 110" width="5" height="3" rx="0.488" transform="translate(446.797 478.566) rotate(180)" fill="#3f3d56"/>
  <rect id="Rectángulo_111" data-name="Rectángulo 111" width="5" height="3" rx="0.488" transform="translate(436.797 478.566) rotate(180)" fill="#3f3d56"/>
  <rect id="Rectángulo_112" data-name="Rectángulo 112" width="5" height="3" rx="0.488" transform="translate(426.797 478.566) rotate(180)" fill="#3f3d56"/>
  <rect id="Rectángulo_113" data-name="Rectángulo 113" width="5" height="3" rx="0.488" transform="translate(416.797 478.566) rotate(180)" fill="#3f3d56"/>
  <rect id="Rectángulo_114" data-name="Rectángulo 114" width="5" height="3" rx="0.488" transform="translate(406.797 478.566) rotate(180)" fill="#3f3d56"/>
  <rect id="Rectángulo_115" data-name="Rectángulo 115" width="5" height="3" rx="0.488" transform="translate(396.797 478.566) rotate(180)" fill="#3f3d56"/>
  <rect id="Rectángulo_116" data-name="Rectángulo 116" width="5" height="3" rx="0.488" transform="translate(386.797 478.566) rotate(180)" fill="#3f3d56"/>
  <rect id="Rectángulo_117" data-name="Rectángulo 117" width="5" height="3" rx="0.488" transform="translate(376.797 478.566) rotate(180)" fill="#3f3d56"/>
  <rect id="Rectángulo_118" data-name="Rectángulo 118" width="5" height="3" rx="0.488" transform="translate(366.797 478.566) rotate(180)" fill="#3f3d56"/>
  <rect id="Rectángulo_119" data-name="Rectángulo 119" width="5" height="3" rx="0.488" transform="translate(356.797 478.566) rotate(180)" fill="#3f3d56"/>
  <rect id="Rectángulo_120" data-name="Rectángulo 120" width="5" height="3" rx="0.488" transform="translate(506.915 483.566) rotate(180)" fill="#3f3d56"/>
  <rect id="Rectángulo_121" data-name="Rectángulo 121" width="5" height="3" rx="0.488" transform="translate(496.915 483.566) rotate(180)" fill="#3f3d56"/>
  <rect id="Rectángulo_122" data-name="Rectángulo 122" width="5" height="3" rx="0.488" transform="translate(486.915 483.566) rotate(180)" fill="#3f3d56"/>
  <rect id="Rectángulo_123" data-name="Rectángulo 123" width="5" height="3" rx="0.488" transform="translate(476.915 483.566) rotate(180)" fill="#3f3d56"/>
  <rect id="Rectángulo_124" data-name="Rectángulo 124" width="5" height="3" rx="0.488" transform="translate(466.915 483.566) rotate(180)" fill="#3f3d56"/>
  <rect id="Rectángulo_125" data-name="Rectángulo 125" width="5" height="3" rx="0.488" transform="translate(456.915 483.566) rotate(180)" fill="#3f3d56"/>
  <rect id="Rectángulo_126" data-name="Rectángulo 126" width="5" height="3" rx="0.488" transform="translate(446.915 483.566) rotate(180)" fill="#3f3d56"/>
  <rect id="Rectángulo_127" data-name="Rectángulo 127" width="5" height="3" rx="0.488" transform="translate(436.915 483.566) rotate(180)" fill="#3f3d56"/>
  <rect id="Rectángulo_128" data-name="Rectángulo 128" width="5" height="3" rx="0.488" transform="translate(426.915 483.566) rotate(180)" fill="#3f3d56"/>
  <rect id="Rectángulo_129" data-name="Rectángulo 129" width="5" height="3" rx="0.488" transform="translate(416.915 483.566) rotate(180)" fill="#3f3d56"/>
  <rect id="Rectángulo_130" data-name="Rectángulo 130" width="5" height="3" rx="0.488" transform="translate(406.915 483.566) rotate(180)" fill="#3f3d56"/>
  <rect id="Rectángulo_131" data-name="Rectángulo 131" width="5" height="3" rx="0.488" transform="translate(396.915 483.566) rotate(180)" fill="#3f3d56"/>
  <rect id="Rectángulo_132" data-name="Rectángulo 132" width="5" height="3" rx="0.488" transform="translate(386.915 483.566) rotate(180)" fill="#3f3d56"/>
  <rect id="Rectángulo_133" data-name="Rectángulo 133" width="5" height="3" rx="0.488" transform="translate(376.915 483.566) rotate(180)" fill="#3f3d56"/>
  <rect id="Rectángulo_134" data-name="Rectángulo 134" width="5" height="3" rx="0.488" transform="translate(366.915 483.566) rotate(180)" fill="#3f3d56"/>
  <rect id="Rectángulo_135" data-name="Rectángulo 135" width="5" height="3" rx="0.488" transform="translate(356.915 483.566) rotate(180)" fill="#3f3d56"/>
  <rect id="Rectángulo_136" data-name="Rectángulo 136" width="40" height="3" rx="0.488" transform="translate(458.915 489.566) rotate(180)" fill="#3f3d56"/>
  <path id="Trazado_742" data-name="Trazado 742" d="M468.612,406.811H723.935a1.015,1.015,0,1,0,0-2.031H468.612a1.015,1.015,0,1,0,0,2.031Z" transform="translate(-159.92 -161.864)" fill="#3aacf4"/>
  <ellipse id="Elipse_49" data-name="Elipse 49" cx="5.95" cy="6.083" rx="5.95" ry="6.083" transform="translate(540.685 225.566)" fill="#1bbe92"/>
  <ellipse id="Elipse_50" data-name="Elipse 50" cx="5.95" cy="6.083" rx="5.95" ry="6.083" transform="translate(520.129 225.566)" fill="#f2c91d"/>
  <ellipse id="Elipse_51" data-name="Elipse 51" cx="5.95" cy="6.083" rx="5.95" ry="6.083" transform="translate(499.573 225.566)" fill="#db1222"/>
  <path id="Trazado_743" data-name="Trazado 743" d="M479.9,390.044a1.1,1.1,0,0,0,1.09,1.1h14.6a1.105,1.105,0,0,0,0-2.21h-14.6a1.1,1.1,0,0,0-1.09,1.11Z" transform="translate(-159.92 -161.864)" fill="#fff"/>
  <path id="Trazado_744" data-name="Trazado 744" d="M479.9,394.194a1.1,1.1,0,0,0,1.09,1.1h14.6a1.105,1.105,0,0,0,0-2.21h-14.6a1.1,1.1,0,0,0-1.09,1.11Z" transform="translate(-159.92 -161.864)" fill="#fff"/>
  <path id="Trazado_745" data-name="Trazado 745" d="M479.9,398.334a1.1,1.1,0,0,0,1.09,1.11h14.6a1.105,1.105,0,0,0,0-2.21h-14.6A1.1,1.1,0,0,0,479.9,398.334Z" transform="translate(-159.92 -161.864)" fill="#fff"/>
  <rect id="Rectángulo_137" data-name="Rectángulo 137" width="11.006" height="5.76" rx="2.88" transform="translate(316.366 268.543)" fill="#e6e6e6"/>
  <rect id="Rectángulo_138" data-name="Rectángulo 138" width="11.006" height="5.76" rx="2.88" transform="translate(376.366 268.543)" fill="#e6e6e6"/>
  <rect id="Rectángulo_139" data-name="Rectángulo 139" width="11.006" height="5.76" rx="2.88" transform="translate(393.366 268.543)" fill="#e6e6e6"/>
  <rect id="Rectángulo_140" data-name="Rectángulo 140" width="38.366" height="5.76" rx="2.88" transform="translate(332.686 268.063)" fill="#e6e6e6"/>
  <rect id="Rectángulo_141" data-name="Rectángulo 141" width="38.366" height="5.76" rx="2.88" transform="translate(412.686 268.063)" fill="#e6e6e6"/>
  <rect id="Rectángulo_142" data-name="Rectángulo 142" width="11.006" height="5.76" rx="2.88" transform="translate(332.366 281.543)" fill="#e6e6e6"/>
  <rect id="Rectángulo_143" data-name="Rectángulo 143" width="11.006" height="5.76" rx="2.88" transform="translate(392.366 281.543)" fill="#e6e6e6"/>
  <rect id="Rectángulo_144" data-name="Rectángulo 144" width="11.006" height="5.76" rx="2.88" transform="translate(409.366 281.543)" fill="#e6e6e6"/>
  <rect id="Rectángulo_145" data-name="Rectángulo 145" width="38.366" height="5.76" rx="2.88" transform="translate(348.686 281.063)" fill="#e6e6e6"/>
  <rect id="Rectángulo_146" data-name="Rectángulo 146" width="38.366" height="5.76" rx="2.88" transform="translate(428.686 281.063)" fill="#e6e6e6"/>
  <rect id="Rectángulo_147" data-name="Rectángulo 147" width="11.006" height="5.76" rx="2.88" transform="translate(348.366 294.543)" fill="#e6e6e6"/>
  <rect id="Rectángulo_148" data-name="Rectángulo 148" width="11.006" height="5.76" rx="2.88" transform="translate(408.366 294.543)" fill="#e6e6e6"/>
  <rect id="Rectángulo_149" data-name="Rectángulo 149" width="11.006" height="5.76" rx="2.88" transform="translate(425.366 294.543)" fill="#e6e6e6"/>
  <rect id="Rectángulo_150" data-name="Rectángulo 150" width="38.366" height="5.76" rx="2.88" transform="translate(364.686 294.063)" fill="#e6e6e6"/>
  <rect id="Rectángulo_151" data-name="Rectángulo 151" width="38.366" height="5.76" rx="2.88" transform="translate(444.686 294.063)" fill="#e6e6e6"/>
  <rect id="Rectángulo_152" data-name="Rectángulo 152" width="11.006" height="5.76" rx="2.88" transform="translate(364.366 307.543)" fill="#e6e6e6"/>
  <rect id="Rectángulo_153" data-name="Rectángulo 153" width="11.006" height="5.76" rx="2.88" transform="translate(424.366 307.543)" fill="#e6e6e6"/>
  <rect id="Rectángulo_154" data-name="Rectángulo 154" width="11.006" height="5.76" rx="2.88" transform="translate(441.366 307.543)" fill="#e6e6e6"/>
  <rect id="Rectángulo_155" data-name="Rectángulo 155" width="38.366" height="5.76" rx="2.88" transform="translate(380.686 307.063)" fill="#e6e6e6"/>
  <rect id="Rectángulo_156" data-name="Rectángulo 156" width="11.006" height="5.76" rx="2.88" transform="translate(376.366 359.237)" fill="#e6e6e6"/>
  <rect id="Rectángulo_157" data-name="Rectángulo 157" width="11.006" height="5.76" rx="2.88" transform="translate(393.366 359.237)" fill="#e6e6e6"/>
  <rect id="Rectángulo_158" data-name="Rectángulo 158" width="38.366" height="5.76" rx="2.88" transform="translate(412.686 359.717)" fill="#e6e6e6"/>
  <rect id="Rectángulo_159" data-name="Rectángulo 159" width="11.006" height="5.76" rx="2.88" transform="translate(316.366 359.237)" fill="#e6e6e6"/>
  <rect id="Rectángulo_160" data-name="Rectángulo 160" width="38.366" height="5.76" rx="2.88" transform="translate(332.686 359.717)" fill="#e6e6e6"/>
  <rect id="Rectángulo_161" data-name="Rectángulo 161" width="11.006" height="5.76" rx="2.88" transform="translate(332.366 346.237)" fill="#e6e6e6"/>
  <rect id="Rectángulo_162" data-name="Rectángulo 162" width="11.006" height="5.76" rx="2.88" transform="translate(392.366 346.237)" fill="#e6e6e6"/>
  <rect id="Rectángulo_163" data-name="Rectángulo 163" width="11.006" height="5.76" rx="2.88" transform="translate(409.366 346.237)" fill="#e6e6e6"/>
  <rect id="Rectángulo_164" data-name="Rectángulo 164" width="38.366" height="5.76" rx="2.88" transform="translate(348.686 346.717)" fill="#e6e6e6"/>
  <rect id="Rectángulo_165" data-name="Rectángulo 165" width="11.006" height="5.76" rx="2.88" transform="translate(348.366 333.237)" fill="#e6e6e6"/>
  <rect id="Rectángulo_166" data-name="Rectángulo 166" width="11.006" height="5.76" rx="2.88" transform="translate(408.366 333.237)" fill="#e6e6e6"/>
  <rect id="Rectángulo_167" data-name="Rectángulo 167" width="11.006" height="5.76" rx="2.88" transform="translate(425.366 333.237)" fill="#e6e6e6"/>
  <rect id="Rectángulo_168" data-name="Rectángulo 168" width="38.366" height="5.76" rx="2.88" transform="translate(364.686 333.717)" fill="#e6e6e6"/>
  <rect id="Rectángulo_169" data-name="Rectángulo 169" width="11.006" height="5.76" rx="2.88" transform="translate(364.366 320.237)" fill="#e6e6e6"/>
  <rect id="Rectángulo_170" data-name="Rectángulo 170" width="11.006" height="5.76" rx="2.88" transform="translate(424.366 320.237)" fill="#e6e6e6"/>
  <rect id="Rectángulo_171" data-name="Rectángulo 171" width="11.006" height="5.76" rx="2.88" transform="translate(441.366 320.237)" fill="#e6e6e6"/>
  <rect id="Rectángulo_172" data-name="Rectángulo 172" width="38.366" height="5.76" rx="2.88" transform="translate(380.686 320.717)" fill="#e6e6e6"/>
  <path id="Trazado_746" data-name="Trazado 746" d="M509.832,707.816c-.22.11-.44.22-.66.32q-2.085,1.035-4.2,2.04-6.33,3.015-12.82,5.73a285.491,285.491,0,0,1-34.97,12.03c-2-12.47-3.94-41.88-5.8-63.51-.35-4.07-.7-7.86-1.05-11.21a97.15,97.15,0,0,0-1.89-13.08,4.359,4.359,0,0,0-.39-.97c.19,1.73.39,6.89.58,14.05.1,3.35.19,7.14.29,11.21.47,20.82.96,49.15,1.45,65.28-1.39.34-2.79.68-4.19,1-.88.21-1.77.41-2.66.6-1.08.24-2.16.48-3.24.7q-1.7.36-3.39.69a290.078,290.078,0,0,1-56.06,5.44c-1.25,0-2.49-.01-3.74-.02-.38,0-.76-.01-1.15-.02-1.1-.02-2.24-.04-3.4-.07a288.591,288.591,0,0,1-65.84-9.49l.87-64.11.15-11.21.06-4.25a15.181,15.181,0,0,0-.88,4.25c-.35,2.73-.71,6.6-1.07,11.21-1.37,17.76-2.78,46.41-4.24,62.71-17.29-4.92-29.93-9.41-45.73-17.31-.61-.3-1.23-.61-1.84-.92.11-.77.23-1.54.34-2.33,1.79-12.44-.32-28.63,1.66-42.15,1.51-10.43,3.07-20.45,4.64-28.95,1.9-10.23,3.83-18.27,5.74-22.18,2.2-4.51,4.4-8.95,6.53-13.2l2.71-5.39c.48-.95.96-1.89,1.43-2.81,2.14-4.19,4.16-8.06,6.01-11.49,1.3-2.41,2.5-4.59,3.6-6.5,1.29-2.25,2.43-4.11,3.37-5.52a55.306,55.306,0,0,1,29.28-22.21l.3-.08.29.12.33.15,19.06-6.97,8.51-20.49,43.71-2.69,7.06,5.37,3.61,2.75,3.85,2.93,7.08,5.39,2.01.62,2.99.92,20.45,6.28.21-.09.3.08a55.168,55.168,0,0,1,27.36,19.5c.68.88,1.31,1.79,1.92,2.71,1.66,2.46,3.9,6.35,6.54,11.23,1.09,2.01,2.24,4.19,3.45,6.5.73,1.39,7.03,21.05,13.16,41.13,5.73,18.8,11.31,37.97,12.04,42.89.13.91.27,1.83.4,2.74.83,5.69,1.65,11.42,2.44,17.01,1.17,8.29,2.31,16.29,3.4,23.44C509.812,707.686,509.822,707.746,509.832,707.816Z" transform="translate(-159.92 -161.864)" fill="#3f3d56"/>
  <path id="Trazado_747" data-name="Trazado 747" d="M303.59,473.566l-8.5-32.792-7.5,28.3Z" opacity="0.2"/>
  <path id="Trazado_748" data-name="Trazado 748" d="M175.749,635.05a6.416,6.416,0,0,0,6.183,4.331l26.492-.682a6.328,6.328,0,0,0,5.981-4.657l3.749-40.087a9.8,9.8,0,0,0,4.238.871,9.661,9.661,0,1,0-.485-19.317,8.177,8.177,0,0,0-1.736.181,6.548,6.548,0,0,0-4.874-2.1l-40.751,1.052a5.858,5.858,0,0,0-1.005.125,6.365,6.365,0,0,0-4.873,8.265Zm43.173-43.817,2.668-9.553a6.506,6.506,0,0,0,.02-3.375c.129,0,.244-.062.373-.062a6.91,6.91,0,1,1,.324,13.817,6.505,6.505,0,0,1-3.385-.828Z" transform="translate(-159.92 -161.864)" fill="#2f2e41"/>
  <path id="Trazado_749" data-name="Trazado 749" d="M173.541,574.763c.868,4.964,10.629,8.454,22.366,7.847,10.793-.5,19.617-4.287,21.234-8.779a6.024,6.024,0,0,0-1.844-.246l-40.751,1.052A5.852,5.852,0,0,0,173.541,574.763Z" transform="translate(-159.92 -161.864)" fill="#3f3d56"/>
  <path id="Trazado_750" data-name="Trazado 750" d="M198.058,613.021a.494.494,0,0,0,.151-.066l5.753-3.766a.5.5,0,0,0,0-.836l-5.98-3.917a.5.5,0,1,0-.548.836l5.341,3.5-5.114,3.348a.5.5,0,0,0,.4.9Z" transform="translate(-159.92 -161.864)" fill="#fff"/>
  <path id="Trazado_751" data-name="Trazado 751" d="M188.971,613.44a.5.5,0,0,0,.126-.918l-5.3-3.04,5.126-3.807a.5.5,0,0,0-.6-.8l-5.739,4.263a.5.5,0,0,0,.049.835l5.965,3.42a.5.5,0,0,0,.372.051Z" transform="translate(-159.92 -161.864)" fill="#fff"/>
  <path id="Trazado_752" data-name="Trazado 752" d="M197.486,616.321a.482.482,0,0,0,.137-.058.5.5,0,0,0,.167-.687l-8.155-13.408a.5.5,0,0,0-.854.521l8.155,13.408a.5.5,0,0,0,.55.224Z" transform="translate(-159.92 -161.864)" fill="#fff"/>
  <path id="Trazado_753" data-name="Trazado 753" d="M945.069,708.9c-.61.31-1.23.62-1.84.92-15.8,7.9-28.44,12.39-45.73,17.31-1.46-16.3-2.87-44.95-4.24-62.71-.36-4.61-.72-8.48-1.07-11.21a15.183,15.183,0,0,0-.88-4.25l.06,4.25.15,11.21.87,64.11a288.589,288.589,0,0,1-65.84,9.49c-1.16.03-2.3.05-3.4.07-.39.01-.77.02-1.15.02-1.25.01-2.49.02-3.74.02a289.272,289.272,0,0,1-69.54-8.43c.49-16.13.98-44.46,1.45-65.28.1-4.07.19-7.86.29-11.21.19-7.16.39-12.32.58-14.05a4.36,4.36,0,0,0-.39.97,97.15,97.15,0,0,0-1.89,13.08c-.35,3.35-.7,7.14-1.05,11.21-1.86,21.63-3.8,51.04-5.8,63.51a285.473,285.473,0,0,1-34.97-12.03q-9-3.75-17.68-8.09c1.1-7.2,2.25-15.27,3.43-23.64.92-6.49,1.87-13.16,2.84-19.75,1.5-10.18,52.46-120.11,64.47-123.96l.3-.08.21.09,20.45-6.28,2.99-.92,2.01-.62,7.08-5.39,3.85-2.93,3.61-2.75,7.06-5.37,43.71,2.69,8.51,20.49,19.06,6.97.33-.15.29-.12.3.08a55.307,55.307,0,0,1,29.28,22.21c.94,1.41,2.08,3.27,3.37,5.52,1.1,1.91,2.3,4.09,3.6,6.5,1.85,3.43,3.87,7.3,6.01,11.49.47.92.95,1.86,1.43,2.81q1.335,2.64,2.71,5.39c2.13,4.25,4.33,8.69,6.53,13.2,1.91,3.91,3.84,11.95,5.74,22.18,1.57,8.5,3.13,18.52,4.64,28.95,1.98,13.52-.13,29.71,1.66,42.15C944.839,707.364,944.959,708.134,945.069,708.9Z" transform="translate(-159.92 -161.864)" fill="#3f3d56"/>
  <circle id="Elipse_52" data-name="Elipse 52" cx="50.836" cy="50.836" r="50.836" transform="translate(606.118 245.322)" fill="#ffb6b6"/>
  <path id="Trazado_754" data-name="Trazado 754" d="M575.659,473.566l8.5-32.792,7.5,28.3Z" opacity="0.2"/>
  <path id="Trazado_755" data-name="Trazado 755" d="M961.689,614.064c-3.04,41.88.11,60.32-16.67,94.85a286.162,286.162,0,0,1-47.52,18.22q-2.55.72-5.11,1.4a288.585,288.585,0,0,1-65.84,9.49c-1.16.03-2.3.05-3.4.07-.39.01-.77.02-1.15.02-1.25.01-2.49.02-3.74.02a289.272,289.272,0,0,1-69.54-8.43q-3.42-.84-6.81-1.77a285.473,285.473,0,0,1-34.97-12.03q-9-3.75-17.68-8.09c-1.31-.66-2.62-1.32-3.91-2-6.63-11.66-10.4-25.84-10.48-42.88C679.459,633.574,951.549,588.744,961.689,614.064Z" transform="translate(-159.92 -161.864)" fill="#2f2e41"/>
  <path id="Trazado_756" data-name="Trazado 756" d="M961.681,621.236c.155-2.593.329-5.271.531-8.06-10.14-25.32-282.23,19.51-286.82,48.87.013,2.692.128,5.3.321,7.855C686.829,640.922,945.318,598.314,961.681,621.236Z" transform="translate(-159.92 -161.864)" opacity="0.2"/>
  <path id="Trazado_757" data-name="Trazado 757" d="M668.1,616.039l22.334-11.167-18.611-50.251-4.9-25.342a19.161,19.161,0,0,0-31.282-10.907h0a19.161,19.161,0,0,0-2.493,26.518l18.207,22.759Z" transform="translate(-159.92 -161.864)" fill="#ffb6b6"/>
  <path id="Trazado_758" data-name="Trazado 758" d="M690.436,595.567l-29.778,14.889,22.6,70.809a30.977,30.977,0,0,0,22.336,20.716h0a30.977,30.977,0,0,0,33.737-14.2L799.254,585.07a31.62,31.62,0,0,0-10.2-42.982h0a31.62,31.62,0,0,0-45.3,12.765L707.187,632.79Z" transform="translate(-159.92 -161.864)" fill="#3f3d56"/>
  <path id="Trazado_766" data-name="Trazado 766" d="M55.935,0A55.935,55.935,0,1,1,0,55.935,55.935,55.935,0,0,1,55.935,0Z" transform="translate(153.573 231.617)" fill="#f4b9b8"/>
  <path id="Trazado_759" data-name="Trazado 759" d="M314.164,410.87c4.548-6.13,11.085-10.488,16.085-16.255,2.743-3.164,5.021-6.75,8.106-9.582,5.73-5.263,13.744-7.42,21.52-7.688a54.3,54.3,0,0,1,44.331,21.038l12.194-7.149,4.817,12.68a7.391,7.391,0,0,1,11.264,9.248c.967-2.989,5.4-3.623,7.842-1.649s3.1,5.488,2.7,8.6a17.32,17.32,0,0,1-13.065,14.326c-5.3,1.182-11.477-.06-15.723,3.332-3.4,2.72-4.431,7.672-7.9,10.3-4.28,3.24-10.329,1.742-15.65,2.458-9.308,1.253-16.678,10.773-15.56,20.1-.842-2.942-1.727-5.97-3.639-8.36s-5.131-4.007-8.062-3.128c-4.846,1.453-5.639,8.058-4.464,12.978,3.115,13.05,14.919,34.144,14.919,34.144-15.328,6.046-33.589.329-45.415-11.144s-17.986-27.719-20.669-43.976C305.516,437.361,305.839,422.091,314.164,410.87Z" transform="translate(-159.92 -161.864)" fill="#2f2e41"/>
  <path id="Trazado_760" data-name="Trazado 760" d="M880.582,486.046c10.642-24.4,4.613-46.85-8.36-58.76v-.01c-5.1-11.43-11.88-20.25-19.64-22.32-3.75-2.41-7.39-5.24-11.43-6.68a14.887,14.887,0,0,0-11.68.53l-2.06-.55c-1.75-4.47-3.8-4.56-6.08-1.62-8.78-4.09-16.69-5.92-23.73-5.92-22.96,0-36.54,19.44-40.14,42.94l19.19,5.11,6.67-10.63-3.08,11.59,10.59,2.81c16.12,20.99-3.17,69.41-27.62,96.35q8.73-2.415,17.39-4.08l20.98-30.76-13,28c6.75-.99,15.36-.04,24.77,1.87,3.17-4.14,4.84-9.66,3.2-14.58a55.749,55.749,0,0,1,5.48,16.53c19.86,4.85,46.95,7.34,61.55,9.18C895.378,541.2,895.41,497.706,880.582,486.046Z" transform="translate(-159.92 -161.864)" fill="#2f2e41"/>
  <path id="Trazado_761" data-name="Trazado 761" d="M887.505,403.054c7.795,17.453-7.933,24.96-22.341,24.748-13.019-.192-24.084-9.338-24.748-22.341a23.576,23.576,0,0,1,22.341-24.748C875.76,380.048,882.2,391.166,887.505,403.054Z" transform="translate(-159.92 -161.864)" fill="#2f2e41"/>
  <path id="Trazado_762" data-name="Trazado 762" d="M525.9,687.173l-12.84-21.416,42.691-32.388,17.75-18.741a19.161,19.161,0,0,1,32.245,7.6h0a19.161,19.161,0,0,1-12.142,23.707l-27.583,9.416Z" transform="translate(-159.92 -161.864)" fill="#f4b9b8"/>
  <path id="Trazado_763" data-name="Trazado 763" d="M535.182,686.466l-19.99,16.66-5.39,4.49-.63.52q-2.085,1.035-4.2,2.04-6.33,3.015-12.82,5.73a285.491,285.491,0,0,1-34.97,12.03q-3.39.93-6.81,1.77c-1.39.34-2.79.68-4.19,1-.88.21-1.77.41-2.66.6-1.08.24-2.16.48-3.24.7q-1.7.36-3.39.69a30.963,30.963,0,0,1-9.62-22.44c0-.27,0-.55.01-.83l3.21-82.33,1.42-36.49a31.618,31.618,0,0,1,31.69-30.78c.96,0,1.91.05,2.85.14.68.88,1.31,1.79,1.92,2.71,1.66,2.46,3.9,6.35,6.54,11.23,1.09,2.01,2.24,4.19,3.45,6.5.73,1.39,7.03,21.05,13.16,41.13l-2.7,20.97-4.88,37.8,20.02-13.14,14.1-9.26,1.67,2.79,4.35,7.26,8.4,14Z" transform="translate(-159.92 -161.864)" fill="#3f3d56"/>
  <path id="Trazado_764" data-name="Trazado 764" d="M524.222,662.936c-.01,1.7-.05,3.37-.14,5.02a97.238,97.238,0,0,1-1.58,13.56,79.141,79.141,0,0,1-7.31,21.61c-.46.91-.95,1.81-1.45,2.69-1.29.68-2.6,1.34-3.91,2-.22.11-.44.22-.66.32q-8.355,4.155-17.02,7.77a285.491,285.491,0,0,1-34.97,12.03q-3.39.93-6.81,1.77-6.675,1.65-13.48,2.99a290.068,290.068,0,0,1-56.06,5.44c-1.25,0-2.49-.01-3.74-.02-.38,0-.76-.01-1.15-.02-1.1-.02-2.24-.04-3.4-.07a288.588,288.588,0,0,1-65.84-9.49q-2.565-.675-5.11-1.4a286.165,286.165,0,0,1-47.52-18.22c-16.78-34.53-13.63-52.97-16.67-94.85,6.24-15.59,111.81-4.58,193.09,13.03,22.06,4.78,42.32,10.05,58.33,15.41,16.54,5.53,28.53,11.15,33.23,16.43a7.937,7.937,0,0,1,2.17,4Z" transform="translate(-159.92 -161.864)" fill="#2f2e41"/>
  <path id="Trazado_765" data-name="Trazado 765" d="M237.408,621.236c-.155-2.593-.329-5.271-.531-8.06,10.14-25.32,282.23,19.51,286.82,48.87-.013,2.692-.128,5.3-.321,7.855C512.26,640.922,253.77,598.314,237.408,621.236Z" transform="translate(-159.92 -161.864)" opacity="0.2"/>
</svg>
